<svg width="692" height="677" viewBox="0 0 692 677" fill="none" xmlns="http://www.w3.org/2000/svg">
<path d="M556.085 42.4264C586.505 58.641 625.666 135.525 641.444 171.94C646.238 231.838 677.831 387.141 690.228 441.442C702.625 495.743 546.288 651.501 512.666 647.984C479.044 644.468 280.39 657.988 249.677 670.599C218.965 683.21 139.392 676.291 105.045 592.646L6.78708 353.358C-21.0382 285.595 66.561 122.18 105.801 112.253C145.042 102.327 238.772 29.1934 281.948 7.75239C325.124 -13.6885 398.187 25.6 439.032 28.6249C479.878 31.6498 518.059 22.1582 556.085 42.4264Z" fill="#45AFE8" stroke="#4D9FCC"/>
</svg>
