<svg width="691" height="722" viewBox="0 0 691 722" fill="none" xmlns="http://www.w3.org/2000/svg">
<path d="M467.456 24.5538C392.321 -17.6101 364.225 7.28664 307.251 22.5569C275.018 40.5378 236.489 27.1309 192.133 43.7149C129.066 67.2947 69.1318 116.615 65.4456 149.107C61.7162 181.979 57.1575 225.826 42.1985 269.756C20.9847 332.054 -10.1939 393.726 4.80831 417.673C30.5405 458.748 24.115 503.661 46.0545 537.396C79.9167 589.464 117.721 586.303 142.094 643.121C168.085 703.711 202.724 735.422 290.487 713.655C337.023 702.112 368.045 727.143 413.271 715.926C453.337 705.988 530.544 683.984 541.556 651.383C551.832 620.96 599.099 598.091 627.205 560.046C656.327 520.628 666.318 465.933 677.43 428.957C708.749 324.738 670.939 343.093 657.533 225.114C644.872 113.693 607.686 159.889 555.272 98.4969C505.967 40.7467 505.034 45.6411 467.456 24.5538Z" fill="#45AFE8" stroke="#4D9FCC"/>
</svg>
