<svg width="720" height="689" viewBox="0 0 720 689" fill="none" xmlns="http://www.w3.org/2000/svg">
<path d="M4.42653 259.091C-6.91896 291.642 16.4781 374.692 29.5948 412.148C66.7135 459.402 148.877 594.925 176.613 643.226C204.349 691.527 424.876 699.874 447.189 674.479C469.502 649.083 624.608 524.229 655.726 512.656C686.844 501.082 740.604 442.009 709.083 357.259L618.909 114.809C593.373 46.1502 418.146 -14.4602 382.585 4.87202C347.024 24.2043 228.548 34.0756 182.283 47.6192C136.019 61.1628 109.003 139.597 81.0498 169.533C53.0967 199.469 18.6084 218.402 4.42653 259.091Z" fill="#4D9FCC" stroke="#4D9FCC"/>
</svg>
