<svg width="735" height="684" viewBox="0 0 735 684" fill="none" xmlns="http://www.w3.org/2000/svg">
<path d="M16.4267 261.09C-16.9994 340.499 10.9057 365.61 32.5006 420.5C54.0001 450.5 45.0216 490.295 66.4997 532.499C97.038 592.507 152.8 646.499 185.5 646.5C218.583 646.5 262.665 646.087 308 655.999C372.292 670.056 437.086 694.084 459.189 676.478C497.102 646.28 542.453 647.602 573.5 622C621.419 582.485 614.017 545.278 667.726 514.655C725 482 752.605 444.008 721.083 359.258C704.369 314.319 725.743 280.673 709.5 237C695.11 198.31 664.544 124.075 630.909 116.808C599.522 110.027 571.47 65.6388 530.5 42C488.05 17.5072 432.577 13.7445 394.585 6.8715C287.5 -12.5005 310 22.9995 194.283 49.6187C85.0001 74.758 135.093 106.499 80.0001 165.499C28.1755 220.999 33.144 221.376 16.4267 261.09Z" fill="#4D9FCC" stroke="#4D9FCC"/>
</svg>
